<svg width="24" height="24" viewBox="0 0 24 24" fill="none" xmlns="http://www.w3.org/2000/svg">
<path fill-rule="evenodd" clip-rule="evenodd" d="M6.30278 2.25C4.61677 2.25 3.25 3.61677 3.25 5.30278C3.25 5.90547 3.4284 6.49468 3.76271 6.99615L8.87211 14.6603C9.11851 15.0299 9.25 15.4641 9.25 15.9083V20.382C9.25 21.6829 10.619 22.529 11.7826 21.9472L12.6771 21.5C13.9475 20.8648 14.75 19.5663 14.75 18.1459V15.9083C14.75 15.4641 14.8815 15.0299 15.1279 14.6603L20.2373 6.99615C20.5716 6.49468 20.75 5.90547 20.75 5.30278C20.75 3.61677 19.3832 2.25 17.6972 2.25H6.30278ZM4.75 5.30278C4.75 4.4452 5.4452 3.75 6.30278 3.75H17.6972C18.5548 3.75 19.25 4.4452 19.25 5.30278C19.25 5.60933 19.1593 5.90903 18.9892 6.1641L13.8798 13.8282C13.4691 14.4442 13.25 15.168 13.25 15.9083V18.1459C13.25 18.9981 12.7685 19.7772 12.0062 20.1584L11.1118 20.6056C10.9456 20.6887 10.75 20.5678 10.75 20.382V15.9083C10.75 15.168 10.5309 14.4442 10.1202 13.8282L5.01079 6.1641C4.84074 5.90903 4.75 5.60933 4.75 5.30278Z" fill="#363538"/>
</svg>
